<mxfile host="Electron" modified="2023-12-15T16:38:14.198Z" agent="Mozilla/5.0 (Windows NT 10.0; Win64; x64) AppleWebKit/537.36 (KHTML, like Gecko) draw.io/21.7.5 Chrome/114.0.5735.289 Electron/25.8.1 Safari/537.36" etag="OC-sUEr_mg4F86slfWlw" version="21.7.5" type="device">
  <diagram name="Pagina-1" id="6hU_1WEnKmSlTcyzDpSr">
    <mxGraphModel dx="1884" dy="1102" grid="1" gridSize="10" guides="1" tooltips="1" connect="1" arrows="1" fold="1" page="1" pageScale="1" pageWidth="827" pageHeight="1169" math="0" shadow="0">
      <root>
        <mxCell id="0" />
        <mxCell id="1" parent="0" />
        <mxCell id="0VdXl-Q8qoR_cYJShfiL-1" value="Player" style="swimlane;fontStyle=0;childLayout=stackLayout;horizontal=1;startSize=26;fillColor=none;horizontalStack=0;resizeParent=1;resizeParentMax=0;resizeLast=0;collapsible=1;marginBottom=0;whiteSpace=wrap;html=1;" parent="1" vertex="1">
          <mxGeometry x="557" width="270" height="302" as="geometry" />
        </mxCell>
        <mxCell id="0VdXl-Q8qoR_cYJShfiL-18" value="+ name: String" style="text;strokeColor=none;fillColor=none;align=left;verticalAlign=top;spacingLeft=4;spacingRight=4;overflow=hidden;rotatable=0;points=[[0,0.5],[1,0.5]];portConstraint=eastwest;whiteSpace=wrap;html=1;" parent="0VdXl-Q8qoR_cYJShfiL-1" vertex="1">
          <mxGeometry y="26" width="270" height="26" as="geometry" />
        </mxCell>
        <mxCell id="0VdXl-Q8qoR_cYJShfiL-19" value="+ uuid: UUID" style="text;strokeColor=none;fillColor=none;align=left;verticalAlign=top;spacingLeft=4;spacingRight=4;overflow=hidden;rotatable=0;points=[[0,0.5],[1,0.5]];portConstraint=eastwest;whiteSpace=wrap;html=1;" parent="0VdXl-Q8qoR_cYJShfiL-1" vertex="1">
          <mxGeometry y="52" width="270" height="26" as="geometry" />
        </mxCell>
        <mxCell id="0VdXl-Q8qoR_cYJShfiL-20" value="+ board: Board" style="text;strokeColor=none;fillColor=none;align=left;verticalAlign=top;spacingLeft=4;spacingRight=4;overflow=hidden;rotatable=0;points=[[0,0.5],[1,0.5]];portConstraint=eastwest;whiteSpace=wrap;html=1;" parent="0VdXl-Q8qoR_cYJShfiL-1" vertex="1">
          <mxGeometry y="78" width="270" height="26" as="geometry" />
        </mxCell>
        <mxCell id="0VdXl-Q8qoR_cYJShfiL-24" value="" style="line;strokeWidth=1;fillColor=none;align=left;verticalAlign=middle;spacingTop=-1;spacingLeft=3;spacingRight=3;rotatable=0;labelPosition=right;points=[];portConstraint=eastwest;strokeColor=inherit;" parent="0VdXl-Q8qoR_cYJShfiL-1" vertex="1">
          <mxGeometry y="104" width="270" height="8" as="geometry" />
        </mxCell>
        <mxCell id="0VdXl-Q8qoR_cYJShfiL-25" value="+ Player(string name, Board board)" style="text;strokeColor=none;fillColor=none;align=left;verticalAlign=top;spacingLeft=4;spacingRight=4;overflow=hidden;rotatable=0;points=[[0,0.5],[1,0.5]];portConstraint=eastwest;whiteSpace=wrap;html=1;" parent="0VdXl-Q8qoR_cYJShfiL-1" vertex="1">
          <mxGeometry y="112" width="270" height="26" as="geometry" />
        </mxCell>
        <mxCell id="0VdXl-Q8qoR_cYJShfiL-16" value="" style="line;strokeWidth=1;fillColor=none;align=left;verticalAlign=middle;spacingTop=-1;spacingLeft=3;spacingRight=3;rotatable=0;labelPosition=right;points=[];portConstraint=eastwest;strokeColor=inherit;" parent="0VdXl-Q8qoR_cYJShfiL-1" vertex="1">
          <mxGeometry y="138" width="270" height="8" as="geometry" />
        </mxCell>
        <mxCell id="0VdXl-Q8qoR_cYJShfiL-23" value="+ Attack(Player player, int x, int y): void" style="text;strokeColor=none;fillColor=none;align=left;verticalAlign=top;spacingLeft=4;spacingRight=4;overflow=hidden;rotatable=0;points=[[0,0.5],[1,0.5]];portConstraint=eastwest;whiteSpace=wrap;html=1;" parent="0VdXl-Q8qoR_cYJShfiL-1" vertex="1">
          <mxGeometry y="146" width="270" height="26" as="geometry" />
        </mxCell>
        <mxCell id="0VdXl-Q8qoR_cYJShfiL-32" value="+ getBoard() Board" style="text;strokeColor=none;fillColor=none;align=left;verticalAlign=top;spacingLeft=4;spacingRight=4;overflow=hidden;rotatable=0;points=[[0,0.5],[1,0.5]];portConstraint=eastwest;whiteSpace=wrap;html=1;" parent="0VdXl-Q8qoR_cYJShfiL-1" vertex="1">
          <mxGeometry y="172" width="270" height="26" as="geometry" />
        </mxCell>
        <mxCell id="9oA4WcotnSKjbuGWI8nr-82" value="+ getName(): String" style="text;strokeColor=none;fillColor=none;align=left;verticalAlign=top;spacingLeft=4;spacingRight=4;overflow=hidden;rotatable=0;points=[[0,0.5],[1,0.5]];portConstraint=eastwest;whiteSpace=wrap;html=1;" vertex="1" parent="0VdXl-Q8qoR_cYJShfiL-1">
          <mxGeometry y="198" width="270" height="26" as="geometry" />
        </mxCell>
        <mxCell id="0VdXl-Q8qoR_cYJShfiL-22" value="+ isWinner(): boolean" style="text;strokeColor=none;fillColor=none;align=left;verticalAlign=top;spacingLeft=4;spacingRight=4;overflow=hidden;rotatable=0;points=[[0,0.5],[1,0.5]];portConstraint=eastwest;whiteSpace=wrap;html=1;" parent="0VdXl-Q8qoR_cYJShfiL-1" vertex="1">
          <mxGeometry y="224" width="270" height="26" as="geometry" />
        </mxCell>
        <mxCell id="9oA4WcotnSKjbuGWI8nr-85" value="+ generateUUID(): UUID" style="text;strokeColor=none;fillColor=none;align=left;verticalAlign=top;spacingLeft=4;spacingRight=4;overflow=hidden;rotatable=0;points=[[0,0.5],[1,0.5]];portConstraint=eastwest;whiteSpace=wrap;html=1;" vertex="1" parent="0VdXl-Q8qoR_cYJShfiL-1">
          <mxGeometry y="250" width="270" height="26" as="geometry" />
        </mxCell>
        <mxCell id="9oA4WcotnSKjbuGWI8nr-83" value="+ getUUID(): UUID" style="text;strokeColor=none;fillColor=none;align=left;verticalAlign=top;spacingLeft=4;spacingRight=4;overflow=hidden;rotatable=0;points=[[0,0.5],[1,0.5]];portConstraint=eastwest;whiteSpace=wrap;html=1;" vertex="1" parent="0VdXl-Q8qoR_cYJShfiL-1">
          <mxGeometry y="276" width="270" height="26" as="geometry" />
        </mxCell>
        <mxCell id="0VdXl-Q8qoR_cYJShfiL-9" value="Game" style="swimlane;fontStyle=0;childLayout=stackLayout;horizontal=1;startSize=26;fillColor=none;horizontalStack=0;resizeParent=1;resizeParentMax=0;resizeLast=0;collapsible=1;marginBottom=0;whiteSpace=wrap;html=1;" parent="1" vertex="1">
          <mxGeometry x="279" y="740" width="240" height="250" as="geometry" />
        </mxCell>
        <mxCell id="0VdXl-Q8qoR_cYJShfiL-26" value="+ board1: Board" style="text;strokeColor=none;fillColor=none;align=left;verticalAlign=top;spacingLeft=4;spacingRight=4;overflow=hidden;rotatable=0;points=[[0,0.5],[1,0.5]];portConstraint=eastwest;whiteSpace=wrap;html=1;" parent="0VdXl-Q8qoR_cYJShfiL-9" vertex="1">
          <mxGeometry y="26" width="240" height="26" as="geometry" />
        </mxCell>
        <mxCell id="0VdXl-Q8qoR_cYJShfiL-27" value="+ board2: Board" style="text;strokeColor=none;fillColor=none;align=left;verticalAlign=top;spacingLeft=4;spacingRight=4;overflow=hidden;rotatable=0;points=[[0,0.5],[1,0.5]];portConstraint=eastwest;whiteSpace=wrap;html=1;" parent="0VdXl-Q8qoR_cYJShfiL-9" vertex="1">
          <mxGeometry y="52" width="240" height="26" as="geometry" />
        </mxCell>
        <mxCell id="0VdXl-Q8qoR_cYJShfiL-33" value="" style="line;strokeWidth=1;fillColor=none;align=left;verticalAlign=middle;spacingTop=-1;spacingLeft=3;spacingRight=3;rotatable=0;labelPosition=right;points=[];portConstraint=eastwest;strokeColor=inherit;" parent="0VdXl-Q8qoR_cYJShfiL-9" vertex="1">
          <mxGeometry y="78" width="240" height="8" as="geometry" />
        </mxCell>
        <mxCell id="0VdXl-Q8qoR_cYJShfiL-34" value="+ Game(Board board1, Board board2)&amp;nbsp;" style="text;strokeColor=none;fillColor=none;align=left;verticalAlign=top;spacingLeft=4;spacingRight=4;overflow=hidden;rotatable=0;points=[[0,0.5],[1,0.5]];portConstraint=eastwest;whiteSpace=wrap;html=1;" parent="0VdXl-Q8qoR_cYJShfiL-9" vertex="1">
          <mxGeometry y="86" width="240" height="26" as="geometry" />
        </mxCell>
        <mxCell id="0VdXl-Q8qoR_cYJShfiL-28" value="" style="line;strokeWidth=1;fillColor=none;align=left;verticalAlign=middle;spacingTop=-1;spacingLeft=3;spacingRight=3;rotatable=0;labelPosition=right;points=[];portConstraint=eastwest;strokeColor=inherit;" parent="0VdXl-Q8qoR_cYJShfiL-9" vertex="1">
          <mxGeometry y="112" width="240" height="8" as="geometry" />
        </mxCell>
        <mxCell id="0VdXl-Q8qoR_cYJShfiL-29" value="+ getBoard1(): Board" style="text;strokeColor=none;fillColor=none;align=left;verticalAlign=top;spacingLeft=4;spacingRight=4;overflow=hidden;rotatable=0;points=[[0,0.5],[1,0.5]];portConstraint=eastwest;whiteSpace=wrap;html=1;" parent="0VdXl-Q8qoR_cYJShfiL-9" vertex="1">
          <mxGeometry y="120" width="240" height="26" as="geometry" />
        </mxCell>
        <mxCell id="9oA4WcotnSKjbuGWI8nr-80" value="+ setBoard1(Board board): void" style="text;strokeColor=none;fillColor=none;align=left;verticalAlign=top;spacingLeft=4;spacingRight=4;overflow=hidden;rotatable=0;points=[[0,0.5],[1,0.5]];portConstraint=eastwest;whiteSpace=wrap;html=1;" vertex="1" parent="0VdXl-Q8qoR_cYJShfiL-9">
          <mxGeometry y="146" width="240" height="26" as="geometry" />
        </mxCell>
        <mxCell id="0VdXl-Q8qoR_cYJShfiL-30" value="+ getBoard2(): Board" style="text;strokeColor=none;fillColor=none;align=left;verticalAlign=top;spacingLeft=4;spacingRight=4;overflow=hidden;rotatable=0;points=[[0,0.5],[1,0.5]];portConstraint=eastwest;whiteSpace=wrap;html=1;" parent="0VdXl-Q8qoR_cYJShfiL-9" vertex="1">
          <mxGeometry y="172" width="240" height="26" as="geometry" />
        </mxCell>
        <mxCell id="9oA4WcotnSKjbuGWI8nr-81" value="+ setBoard2(Board board): void&amp;nbsp;" style="text;strokeColor=none;fillColor=none;align=left;verticalAlign=top;spacingLeft=4;spacingRight=4;overflow=hidden;rotatable=0;points=[[0,0.5],[1,0.5]];portConstraint=eastwest;whiteSpace=wrap;html=1;" vertex="1" parent="0VdXl-Q8qoR_cYJShfiL-9">
          <mxGeometry y="198" width="240" height="26" as="geometry" />
        </mxCell>
        <mxCell id="0VdXl-Q8qoR_cYJShfiL-31" value="+ loadDefault(): Board" style="text;strokeColor=none;fillColor=none;align=left;verticalAlign=top;spacingLeft=4;spacingRight=4;overflow=hidden;rotatable=0;points=[[0,0.5],[1,0.5]];portConstraint=eastwest;whiteSpace=wrap;html=1;" parent="0VdXl-Q8qoR_cYJShfiL-9" vertex="1">
          <mxGeometry y="224" width="240" height="26" as="geometry" />
        </mxCell>
        <mxCell id="9oA4WcotnSKjbuGWI8nr-45" style="edgeStyle=orthogonalEdgeStyle;rounded=0;orthogonalLoop=1;jettySize=auto;html=1;entryX=0.47;entryY=0.976;entryDx=0;entryDy=0;entryPerimeter=0;" edge="1" parent="1" source="0VdXl-Q8qoR_cYJShfiL-10" target="9oA4WcotnSKjbuGWI8nr-44">
          <mxGeometry relative="1" as="geometry" />
        </mxCell>
        <mxCell id="0VdXl-Q8qoR_cYJShfiL-10" value="Board" style="swimlane;fontStyle=0;childLayout=stackLayout;horizontal=1;startSize=26;fillColor=none;horizontalStack=0;resizeParent=1;resizeParentMax=0;resizeLast=0;collapsible=1;marginBottom=0;whiteSpace=wrap;html=1;" parent="1" vertex="1">
          <mxGeometry x="279" y="320" width="270" height="406" as="geometry" />
        </mxCell>
        <mxCell id="0VdXl-Q8qoR_cYJShfiL-35" value="+ pieces: List&amp;lt;Pieces&amp;gt;" style="text;strokeColor=none;fillColor=none;align=left;verticalAlign=top;spacingLeft=4;spacingRight=4;overflow=hidden;rotatable=0;points=[[0,0.5],[1,0.5]];portConstraint=eastwest;whiteSpace=wrap;html=1;" parent="0VdXl-Q8qoR_cYJShfiL-10" vertex="1">
          <mxGeometry y="26" width="270" height="26" as="geometry" />
        </mxCell>
        <mxCell id="0VdXl-Q8qoR_cYJShfiL-58" value="+ bombs: List&amp;lt;Bombs&amp;gt;" style="text;strokeColor=none;fillColor=none;align=left;verticalAlign=top;spacingLeft=4;spacingRight=4;overflow=hidden;rotatable=0;points=[[0,0.5],[1,0.5]];portConstraint=eastwest;whiteSpace=wrap;html=1;" parent="0VdXl-Q8qoR_cYJShfiL-10" vertex="1">
          <mxGeometry y="52" width="270" height="26" as="geometry" />
        </mxCell>
        <mxCell id="9oA4WcotnSKjbuGWI8nr-55" value="" style="line;strokeWidth=1;fillColor=none;align=left;verticalAlign=middle;spacingTop=-1;spacingLeft=3;spacingRight=3;rotatable=0;labelPosition=right;points=[];portConstraint=eastwest;strokeColor=inherit;" vertex="1" parent="0VdXl-Q8qoR_cYJShfiL-10">
          <mxGeometry y="78" width="270" height="8" as="geometry" />
        </mxCell>
        <mxCell id="9oA4WcotnSKjbuGWI8nr-56" value="+ Board(int width, int height)" style="text;strokeColor=none;fillColor=none;align=left;verticalAlign=top;spacingLeft=4;spacingRight=4;overflow=hidden;rotatable=0;points=[[0,0.5],[1,0.5]];portConstraint=eastwest;whiteSpace=wrap;html=1;" vertex="1" parent="0VdXl-Q8qoR_cYJShfiL-10">
          <mxGeometry y="86" width="270" height="26" as="geometry" />
        </mxCell>
        <mxCell id="9oA4WcotnSKjbuGWI8nr-57" value="" style="line;strokeWidth=1;fillColor=none;align=left;verticalAlign=middle;spacingTop=-1;spacingLeft=3;spacingRight=3;rotatable=0;labelPosition=right;points=[];portConstraint=eastwest;strokeColor=inherit;" vertex="1" parent="0VdXl-Q8qoR_cYJShfiL-10">
          <mxGeometry y="112" width="270" height="8" as="geometry" />
        </mxCell>
        <mxCell id="9oA4WcotnSKjbuGWI8nr-60" value="+ generateDefaultPieces(): void" style="text;strokeColor=none;fillColor=none;align=left;verticalAlign=top;spacingLeft=4;spacingRight=4;overflow=hidden;rotatable=0;points=[[0,0.5],[1,0.5]];portConstraint=eastwest;whiteSpace=wrap;html=1;" vertex="1" parent="0VdXl-Q8qoR_cYJShfiL-10">
          <mxGeometry y="120" width="270" height="26" as="geometry" />
        </mxCell>
        <mxCell id="9oA4WcotnSKjbuGWI8nr-61" value="+ setPieces(List&amp;lt;Pieces&amp;gt;): void" style="text;strokeColor=none;fillColor=none;align=left;verticalAlign=top;spacingLeft=4;spacingRight=4;overflow=hidden;rotatable=0;points=[[0,0.5],[1,0.5]];portConstraint=eastwest;whiteSpace=wrap;html=1;" vertex="1" parent="0VdXl-Q8qoR_cYJShfiL-10">
          <mxGeometry y="146" width="270" height="26" as="geometry" />
        </mxCell>
        <mxCell id="9oA4WcotnSKjbuGWI8nr-62" value="+ getPieces(): List&amp;lt;Pieces&amp;gt;" style="text;strokeColor=none;fillColor=none;align=left;verticalAlign=top;spacingLeft=4;spacingRight=4;overflow=hidden;rotatable=0;points=[[0,0.5],[1,0.5]];portConstraint=eastwest;whiteSpace=wrap;html=1;" vertex="1" parent="0VdXl-Q8qoR_cYJShfiL-10">
          <mxGeometry y="172" width="270" height="26" as="geometry" />
        </mxCell>
        <mxCell id="9oA4WcotnSKjbuGWI8nr-63" value="+ setBombs(List&amp;lt;Bomb&amp;gt;): void" style="text;strokeColor=none;fillColor=none;align=left;verticalAlign=top;spacingLeft=4;spacingRight=4;overflow=hidden;rotatable=0;points=[[0,0.5],[1,0.5]];portConstraint=eastwest;whiteSpace=wrap;html=1;" vertex="1" parent="0VdXl-Q8qoR_cYJShfiL-10">
          <mxGeometry y="198" width="270" height="26" as="geometry" />
        </mxCell>
        <mxCell id="9oA4WcotnSKjbuGWI8nr-64" value="+ getBombs(): List&amp;lt;Bomb&amp;gt;" style="text;strokeColor=none;fillColor=none;align=left;verticalAlign=top;spacingLeft=4;spacingRight=4;overflow=hidden;rotatable=0;points=[[0,0.5],[1,0.5]];portConstraint=eastwest;whiteSpace=wrap;html=1;" vertex="1" parent="0VdXl-Q8qoR_cYJShfiL-10">
          <mxGeometry y="224" width="270" height="26" as="geometry" />
        </mxCell>
        <mxCell id="9oA4WcotnSKjbuGWI8nr-65" value="+ recieveBomb(Bomb bomb): boolean" style="text;strokeColor=none;fillColor=none;align=left;verticalAlign=top;spacingLeft=4;spacingRight=4;overflow=hidden;rotatable=0;points=[[0,0.5],[1,0.5]];portConstraint=eastwest;whiteSpace=wrap;html=1;" vertex="1" parent="0VdXl-Q8qoR_cYJShfiL-10">
          <mxGeometry y="250" width="270" height="26" as="geometry" />
        </mxCell>
        <mxCell id="9oA4WcotnSKjbuGWI8nr-66" value="+ isCoordOnBoard(int width, int height): void" style="text;strokeColor=none;fillColor=none;align=left;verticalAlign=top;spacingLeft=4;spacingRight=4;overflow=hidden;rotatable=0;points=[[0,0.5],[1,0.5]];portConstraint=eastwest;whiteSpace=wrap;html=1;" vertex="1" parent="0VdXl-Q8qoR_cYJShfiL-10">
          <mxGeometry y="276" width="270" height="26" as="geometry" />
        </mxCell>
        <mxCell id="9oA4WcotnSKjbuGWI8nr-67" value="+ placeAllRandomly(): void" style="text;strokeColor=none;fillColor=none;align=left;verticalAlign=top;spacingLeft=4;spacingRight=4;overflow=hidden;rotatable=0;points=[[0,0.5],[1,0.5]];portConstraint=eastwest;whiteSpace=wrap;html=1;" vertex="1" parent="0VdXl-Q8qoR_cYJShfiL-10">
          <mxGeometry y="302" width="270" height="26" as="geometry" />
        </mxCell>
        <mxCell id="9oA4WcotnSKjbuGWI8nr-68" value="+ placePieceRandom(Piece piece): void" style="text;strokeColor=none;fillColor=none;align=left;verticalAlign=top;spacingLeft=4;spacingRight=4;overflow=hidden;rotatable=0;points=[[0,0.5],[1,0.5]];portConstraint=eastwest;whiteSpace=wrap;html=1;" vertex="1" parent="0VdXl-Q8qoR_cYJShfiL-10">
          <mxGeometry y="328" width="270" height="26" as="geometry" />
        </mxCell>
        <mxCell id="9oA4WcotnSKjbuGWI8nr-69" value="+ canBePlaced(Piece piece): boolean" style="text;strokeColor=none;fillColor=none;align=left;verticalAlign=top;spacingLeft=4;spacingRight=4;overflow=hidden;rotatable=0;points=[[0,0.5],[1,0.5]];portConstraint=eastwest;whiteSpace=wrap;html=1;" vertex="1" parent="0VdXl-Q8qoR_cYJShfiL-10">
          <mxGeometry y="354" width="270" height="26" as="geometry" />
        </mxCell>
        <mxCell id="9oA4WcotnSKjbuGWI8nr-70" value="+ isCoordOnPiece(int width, int height): boolean" style="text;strokeColor=none;fillColor=none;align=left;verticalAlign=top;spacingLeft=4;spacingRight=4;overflow=hidden;rotatable=0;points=[[0,0.5],[1,0.5]];portConstraint=eastwest;whiteSpace=wrap;html=1;" vertex="1" parent="0VdXl-Q8qoR_cYJShfiL-10">
          <mxGeometry y="380" width="270" height="26" as="geometry" />
        </mxCell>
        <mxCell id="9oA4WcotnSKjbuGWI8nr-46" style="edgeStyle=orthogonalEdgeStyle;rounded=0;orthogonalLoop=1;jettySize=auto;html=1;entryX=0.473;entryY=1;entryDx=0;entryDy=0;entryPerimeter=0;" edge="1" parent="1" source="0VdXl-Q8qoR_cYJShfiL-11" target="9oA4WcotnSKjbuGWI8nr-44">
          <mxGeometry relative="1" as="geometry" />
        </mxCell>
        <mxCell id="0VdXl-Q8qoR_cYJShfiL-11" value="Piece" style="swimlane;fontStyle=0;childLayout=stackLayout;horizontal=1;startSize=26;fillColor=none;horizontalStack=0;resizeParent=1;resizeParentMax=0;resizeLast=0;collapsible=1;marginBottom=0;whiteSpace=wrap;html=1;" parent="1" vertex="1">
          <mxGeometry y="320" width="230" height="406" as="geometry" />
        </mxCell>
        <mxCell id="0VdXl-Q8qoR_cYJShfiL-47" value="+ selected: boolean" style="text;strokeColor=none;fillColor=none;align=left;verticalAlign=top;spacingLeft=4;spacingRight=4;overflow=hidden;rotatable=0;points=[[0,0.5],[1,0.5]];portConstraint=eastwest;whiteSpace=wrap;html=1;" parent="0VdXl-Q8qoR_cYJShfiL-11" vertex="1">
          <mxGeometry y="26" width="230" height="26" as="geometry" />
        </mxCell>
        <mxCell id="0VdXl-Q8qoR_cYJShfiL-48" value="+ placed: boolean" style="text;strokeColor=none;fillColor=none;align=left;verticalAlign=top;spacingLeft=4;spacingRight=4;overflow=hidden;rotatable=0;points=[[0,0.5],[1,0.5]];portConstraint=eastwest;whiteSpace=wrap;html=1;" parent="0VdXl-Q8qoR_cYJShfiL-11" vertex="1">
          <mxGeometry y="52" width="230" height="26" as="geometry" />
        </mxCell>
        <mxCell id="0VdXl-Q8qoR_cYJShfiL-50" value="+ coord: Coord" style="text;strokeColor=none;fillColor=none;align=left;verticalAlign=top;spacingLeft=4;spacingRight=4;overflow=hidden;rotatable=0;points=[[0,0.5],[1,0.5]];portConstraint=eastwest;whiteSpace=wrap;html=1;" parent="0VdXl-Q8qoR_cYJShfiL-11" vertex="1">
          <mxGeometry y="78" width="230" height="26" as="geometry" />
        </mxCell>
        <mxCell id="9oA4WcotnSKjbuGWI8nr-47" value="" style="line;strokeWidth=1;fillColor=none;align=left;verticalAlign=middle;spacingTop=-1;spacingLeft=3;spacingRight=3;rotatable=0;labelPosition=right;points=[];portConstraint=eastwest;strokeColor=inherit;" vertex="1" parent="0VdXl-Q8qoR_cYJShfiL-11">
          <mxGeometry y="104" width="230" height="8" as="geometry" />
        </mxCell>
        <mxCell id="9oA4WcotnSKjbuGWI8nr-48" value="+ Piece()" style="text;strokeColor=none;fillColor=none;align=left;verticalAlign=top;spacingLeft=4;spacingRight=4;overflow=hidden;rotatable=0;points=[[0,0.5],[1,0.5]];portConstraint=eastwest;whiteSpace=wrap;html=1;" vertex="1" parent="0VdXl-Q8qoR_cYJShfiL-11">
          <mxGeometry y="112" width="230" height="26" as="geometry" />
        </mxCell>
        <mxCell id="9oA4WcotnSKjbuGWI8nr-49" value="+ Piece(int height)" style="text;strokeColor=none;fillColor=none;align=left;verticalAlign=top;spacingLeft=4;spacingRight=4;overflow=hidden;rotatable=0;points=[[0,0.5],[1,0.5]];portConstraint=eastwest;whiteSpace=wrap;html=1;" vertex="1" parent="0VdXl-Q8qoR_cYJShfiL-11">
          <mxGeometry y="138" width="230" height="26" as="geometry" />
        </mxCell>
        <mxCell id="9oA4WcotnSKjbuGWI8nr-50" value="+ Piece(int height, int width)" style="text;strokeColor=none;fillColor=none;align=left;verticalAlign=top;spacingLeft=4;spacingRight=4;overflow=hidden;rotatable=0;points=[[0,0.5],[1,0.5]];portConstraint=eastwest;whiteSpace=wrap;html=1;" vertex="1" parent="0VdXl-Q8qoR_cYJShfiL-11">
          <mxGeometry y="164" width="230" height="26" as="geometry" />
        </mxCell>
        <mxCell id="0VdXl-Q8qoR_cYJShfiL-51" value="" style="line;strokeWidth=1;fillColor=none;align=left;verticalAlign=middle;spacingTop=-1;spacingLeft=3;spacingRight=3;rotatable=0;labelPosition=right;points=[];portConstraint=eastwest;strokeColor=inherit;" parent="0VdXl-Q8qoR_cYJShfiL-11" vertex="1">
          <mxGeometry y="190" width="230" height="8" as="geometry" />
        </mxCell>
        <mxCell id="0VdXl-Q8qoR_cYJShfiL-53" value="+ isPlaced(): boolean" style="text;strokeColor=none;fillColor=none;align=left;verticalAlign=top;spacingLeft=4;spacingRight=4;overflow=hidden;rotatable=0;points=[[0,0.5],[1,0.5]];portConstraint=eastwest;whiteSpace=wrap;html=1;" parent="0VdXl-Q8qoR_cYJShfiL-11" vertex="1">
          <mxGeometry y="198" width="230" height="26" as="geometry" />
        </mxCell>
        <mxCell id="0VdXl-Q8qoR_cYJShfiL-54" value="+ setPlaced(boolean placed): void" style="text;strokeColor=none;fillColor=none;align=left;verticalAlign=top;spacingLeft=4;spacingRight=4;overflow=hidden;rotatable=0;points=[[0,0.5],[1,0.5]];portConstraint=eastwest;whiteSpace=wrap;html=1;" parent="0VdXl-Q8qoR_cYJShfiL-11" vertex="1">
          <mxGeometry y="224" width="230" height="26" as="geometry" />
        </mxCell>
        <mxCell id="0VdXl-Q8qoR_cYJShfiL-55" value="+ getRotation(): int" style="text;strokeColor=none;fillColor=none;align=left;verticalAlign=top;spacingLeft=4;spacingRight=4;overflow=hidden;rotatable=0;points=[[0,0.5],[1,0.5]];portConstraint=eastwest;whiteSpace=wrap;html=1;" parent="0VdXl-Q8qoR_cYJShfiL-11" vertex="1">
          <mxGeometry y="250" width="230" height="26" as="geometry" />
        </mxCell>
        <mxCell id="0VdXl-Q8qoR_cYJShfiL-57" value="+ setSelected(boolean selected): void" style="text;strokeColor=none;fillColor=none;align=left;verticalAlign=top;spacingLeft=4;spacingRight=4;overflow=hidden;rotatable=0;points=[[0,0.5],[1,0.5]];portConstraint=eastwest;whiteSpace=wrap;html=1;" parent="0VdXl-Q8qoR_cYJShfiL-11" vertex="1">
          <mxGeometry y="276" width="230" height="26" as="geometry" />
        </mxCell>
        <mxCell id="9oA4WcotnSKjbuGWI8nr-51" value="+ isSelected(): boolean" style="text;strokeColor=none;fillColor=none;align=left;verticalAlign=top;spacingLeft=4;spacingRight=4;overflow=hidden;rotatable=0;points=[[0,0.5],[1,0.5]];portConstraint=eastwest;whiteSpace=wrap;html=1;" vertex="1" parent="0VdXl-Q8qoR_cYJShfiL-11">
          <mxGeometry y="302" width="230" height="26" as="geometry" />
        </mxCell>
        <mxCell id="9oA4WcotnSKjbuGWI8nr-52" value="+ rotate(): void" style="text;strokeColor=none;fillColor=none;align=left;verticalAlign=top;spacingLeft=4;spacingRight=4;overflow=hidden;rotatable=0;points=[[0,0.5],[1,0.5]];portConstraint=eastwest;whiteSpace=wrap;html=1;" vertex="1" parent="0VdXl-Q8qoR_cYJShfiL-11">
          <mxGeometry y="328" width="230" height="26" as="geometry" />
        </mxCell>
        <mxCell id="9oA4WcotnSKjbuGWI8nr-53" value="+ lock(): void" style="text;strokeColor=none;fillColor=none;align=left;verticalAlign=top;spacingLeft=4;spacingRight=4;overflow=hidden;rotatable=0;points=[[0,0.5],[1,0.5]];portConstraint=eastwest;whiteSpace=wrap;html=1;" vertex="1" parent="0VdXl-Q8qoR_cYJShfiL-11">
          <mxGeometry y="354" width="230" height="26" as="geometry" />
        </mxCell>
        <mxCell id="9oA4WcotnSKjbuGWI8nr-54" value="+ getCoord(): Coord" style="text;strokeColor=none;fillColor=none;align=left;verticalAlign=top;spacingLeft=4;spacingRight=4;overflow=hidden;rotatable=0;points=[[0,0.5],[1,0.5]];portConstraint=eastwest;whiteSpace=wrap;html=1;" vertex="1" parent="0VdXl-Q8qoR_cYJShfiL-11">
          <mxGeometry y="380" width="230" height="26" as="geometry" />
        </mxCell>
        <mxCell id="0VdXl-Q8qoR_cYJShfiL-36" value="Coords" style="swimlane;fontStyle=0;childLayout=stackLayout;horizontal=1;startSize=30;fillColor=none;horizontalStack=0;resizeParent=1;resizeParentMax=0;resizeLast=0;collapsible=1;marginBottom=0;whiteSpace=wrap;html=1;" parent="1" vertex="1">
          <mxGeometry x="557" y="310" width="210" height="254" as="geometry" />
        </mxCell>
        <mxCell id="0VdXl-Q8qoR_cYJShfiL-38" value="+ x: int" style="text;strokeColor=none;fillColor=none;align=left;verticalAlign=top;spacingLeft=4;spacingRight=4;overflow=hidden;rotatable=0;points=[[0,0.5],[1,0.5]];portConstraint=eastwest;whiteSpace=wrap;html=1;" parent="0VdXl-Q8qoR_cYJShfiL-36" vertex="1">
          <mxGeometry y="30" width="210" height="26" as="geometry" />
        </mxCell>
        <mxCell id="0VdXl-Q8qoR_cYJShfiL-39" value="+ y: int" style="text;strokeColor=none;fillColor=none;align=left;verticalAlign=top;spacingLeft=4;spacingRight=4;overflow=hidden;rotatable=0;points=[[0,0.5],[1,0.5]];portConstraint=eastwest;whiteSpace=wrap;html=1;" parent="0VdXl-Q8qoR_cYJShfiL-36" vertex="1">
          <mxGeometry y="56" width="210" height="26" as="geometry" />
        </mxCell>
        <mxCell id="0VdXl-Q8qoR_cYJShfiL-45" value="" style="line;strokeWidth=1;fillColor=none;align=left;verticalAlign=middle;spacingTop=-1;spacingLeft=3;spacingRight=3;rotatable=0;labelPosition=right;points=[];portConstraint=eastwest;strokeColor=inherit;" parent="0VdXl-Q8qoR_cYJShfiL-36" vertex="1">
          <mxGeometry y="82" width="210" height="8" as="geometry" />
        </mxCell>
        <mxCell id="0VdXl-Q8qoR_cYJShfiL-46" value="+ Coords(int x, int y)" style="text;strokeColor=none;fillColor=none;align=left;verticalAlign=top;spacingLeft=4;spacingRight=4;overflow=hidden;rotatable=0;points=[[0,0.5],[1,0.5]];portConstraint=eastwest;whiteSpace=wrap;html=1;" parent="0VdXl-Q8qoR_cYJShfiL-36" vertex="1">
          <mxGeometry y="90" width="210" height="26" as="geometry" />
        </mxCell>
        <mxCell id="0VdXl-Q8qoR_cYJShfiL-40" value="" style="line;strokeWidth=1;fillColor=none;align=left;verticalAlign=middle;spacingTop=-1;spacingLeft=3;spacingRight=3;rotatable=0;labelPosition=right;points=[];portConstraint=eastwest;strokeColor=inherit;" parent="0VdXl-Q8qoR_cYJShfiL-36" vertex="1">
          <mxGeometry y="116" width="210" height="8" as="geometry" />
        </mxCell>
        <mxCell id="0VdXl-Q8qoR_cYJShfiL-41" value="+ getX(): int" style="text;strokeColor=none;fillColor=none;align=left;verticalAlign=top;spacingLeft=4;spacingRight=4;overflow=hidden;rotatable=0;points=[[0,0.5],[1,0.5]];portConstraint=eastwest;whiteSpace=wrap;html=1;" parent="0VdXl-Q8qoR_cYJShfiL-36" vertex="1">
          <mxGeometry y="124" width="210" height="26" as="geometry" />
        </mxCell>
        <mxCell id="0VdXl-Q8qoR_cYJShfiL-42" value="+ setX(int x): void" style="text;strokeColor=none;fillColor=none;align=left;verticalAlign=top;spacingLeft=4;spacingRight=4;overflow=hidden;rotatable=0;points=[[0,0.5],[1,0.5]];portConstraint=eastwest;whiteSpace=wrap;html=1;" parent="0VdXl-Q8qoR_cYJShfiL-36" vertex="1">
          <mxGeometry y="150" width="210" height="26" as="geometry" />
        </mxCell>
        <mxCell id="0VdXl-Q8qoR_cYJShfiL-43" value="+getY(): int" style="text;strokeColor=none;fillColor=none;align=left;verticalAlign=top;spacingLeft=4;spacingRight=4;overflow=hidden;rotatable=0;points=[[0,0.5],[1,0.5]];portConstraint=eastwest;whiteSpace=wrap;html=1;" parent="0VdXl-Q8qoR_cYJShfiL-36" vertex="1">
          <mxGeometry y="176" width="210" height="26" as="geometry" />
        </mxCell>
        <mxCell id="0VdXl-Q8qoR_cYJShfiL-44" value="+ setY(int y): void" style="text;strokeColor=none;fillColor=none;align=left;verticalAlign=top;spacingLeft=4;spacingRight=4;overflow=hidden;rotatable=0;points=[[0,0.5],[1,0.5]];portConstraint=eastwest;whiteSpace=wrap;html=1;" parent="0VdXl-Q8qoR_cYJShfiL-36" vertex="1">
          <mxGeometry y="202" width="210" height="26" as="geometry" />
        </mxCell>
        <mxCell id="0VdXl-Q8qoR_cYJShfiL-56" value="+ setCoords(int x, int y): void" style="text;strokeColor=none;fillColor=none;align=left;verticalAlign=top;spacingLeft=4;spacingRight=4;overflow=hidden;rotatable=0;points=[[0,0.5],[1,0.5]];portConstraint=eastwest;whiteSpace=wrap;html=1;" parent="0VdXl-Q8qoR_cYJShfiL-36" vertex="1">
          <mxGeometry y="228" width="210" height="26" as="geometry" />
        </mxCell>
        <mxCell id="9oA4WcotnSKjbuGWI8nr-12" value="GameManager" style="swimlane;fontStyle=0;childLayout=stackLayout;horizontal=1;startSize=26;fillColor=none;horizontalStack=0;resizeParent=1;resizeParentMax=0;resizeLast=0;collapsible=1;marginBottom=0;whiteSpace=wrap;html=1;" vertex="1" parent="1">
          <mxGeometry y="740" width="270" height="372" as="geometry" />
        </mxCell>
        <mxCell id="9oA4WcotnSKjbuGWI8nr-13" value="+ game: Game" style="text;strokeColor=none;fillColor=none;align=left;verticalAlign=top;spacingLeft=4;spacingRight=4;overflow=hidden;rotatable=0;points=[[0,0.5],[1,0.5]];portConstraint=eastwest;whiteSpace=wrap;html=1;" vertex="1" parent="9oA4WcotnSKjbuGWI8nr-12">
          <mxGeometry y="26" width="270" height="26" as="geometry" />
        </mxCell>
        <mxCell id="9oA4WcotnSKjbuGWI8nr-14" value="+ player1: Player" style="text;strokeColor=none;fillColor=none;align=left;verticalAlign=top;spacingLeft=4;spacingRight=4;overflow=hidden;rotatable=0;points=[[0,0.5],[1,0.5]];portConstraint=eastwest;whiteSpace=wrap;html=1;" vertex="1" parent="9oA4WcotnSKjbuGWI8nr-12">
          <mxGeometry y="52" width="270" height="26" as="geometry" />
        </mxCell>
        <mxCell id="9oA4WcotnSKjbuGWI8nr-15" value="+ player2: Player" style="text;strokeColor=none;fillColor=none;align=left;verticalAlign=top;spacingLeft=4;spacingRight=4;overflow=hidden;rotatable=0;points=[[0,0.5],[1,0.5]];portConstraint=eastwest;whiteSpace=wrap;html=1;" vertex="1" parent="9oA4WcotnSKjbuGWI8nr-12">
          <mxGeometry y="78" width="270" height="26" as="geometry" />
        </mxCell>
        <mxCell id="9oA4WcotnSKjbuGWI8nr-72" value="+ gameManager: GameManager" style="text;strokeColor=none;fillColor=none;align=left;verticalAlign=top;spacingLeft=4;spacingRight=4;overflow=hidden;rotatable=0;points=[[0,0.5],[1,0.5]];portConstraint=eastwest;whiteSpace=wrap;html=1;" vertex="1" parent="9oA4WcotnSKjbuGWI8nr-12">
          <mxGeometry y="104" width="270" height="26" as="geometry" />
        </mxCell>
        <mxCell id="9oA4WcotnSKjbuGWI8nr-16" value="" style="line;strokeWidth=1;fillColor=none;align=left;verticalAlign=middle;spacingTop=-1;spacingLeft=3;spacingRight=3;rotatable=0;labelPosition=right;points=[];portConstraint=eastwest;strokeColor=inherit;" vertex="1" parent="9oA4WcotnSKjbuGWI8nr-12">
          <mxGeometry y="130" width="270" height="8" as="geometry" />
        </mxCell>
        <mxCell id="9oA4WcotnSKjbuGWI8nr-17" value="+ getInstance(): GameManager" style="text;strokeColor=none;fillColor=none;align=left;verticalAlign=top;spacingLeft=4;spacingRight=4;overflow=hidden;rotatable=0;points=[[0,0.5],[1,0.5]];portConstraint=eastwest;whiteSpace=wrap;html=1;" vertex="1" parent="9oA4WcotnSKjbuGWI8nr-12">
          <mxGeometry y="138" width="270" height="26" as="geometry" />
        </mxCell>
        <mxCell id="9oA4WcotnSKjbuGWI8nr-18" value="+ startGame(): void" style="text;strokeColor=none;fillColor=none;align=left;verticalAlign=top;spacingLeft=4;spacingRight=4;overflow=hidden;rotatable=0;points=[[0,0.5],[1,0.5]];portConstraint=eastwest;whiteSpace=wrap;html=1;" vertex="1" parent="9oA4WcotnSKjbuGWI8nr-12">
          <mxGeometry y="164" width="270" height="26" as="geometry" />
        </mxCell>
        <mxCell id="9oA4WcotnSKjbuGWI8nr-19" value="+ openScene(fxmlFile: String, title, String): void" style="text;strokeColor=none;fillColor=none;align=left;verticalAlign=top;spacingLeft=4;spacingRight=4;overflow=hidden;rotatable=0;points=[[0,0.5],[1,0.5]];portConstraint=eastwest;whiteSpace=wrap;html=1;" vertex="1" parent="9oA4WcotnSKjbuGWI8nr-12">
          <mxGeometry y="190" width="270" height="26" as="geometry" />
        </mxCell>
        <mxCell id="9oA4WcotnSKjbuGWI8nr-20" value="+ closeScene(button: Button): void" style="text;strokeColor=none;fillColor=none;align=left;verticalAlign=top;spacingLeft=4;spacingRight=4;overflow=hidden;rotatable=0;points=[[0,0.5],[1,0.5]];portConstraint=eastwest;whiteSpace=wrap;html=1;" vertex="1" parent="9oA4WcotnSKjbuGWI8nr-12">
          <mxGeometry y="216" width="270" height="26" as="geometry" />
        </mxCell>
        <mxCell id="9oA4WcotnSKjbuGWI8nr-73" value="+ setPlayer1(Player player): void" style="text;strokeColor=none;fillColor=none;align=left;verticalAlign=top;spacingLeft=4;spacingRight=4;overflow=hidden;rotatable=0;points=[[0,0.5],[1,0.5]];portConstraint=eastwest;whiteSpace=wrap;html=1;" vertex="1" parent="9oA4WcotnSKjbuGWI8nr-12">
          <mxGeometry y="242" width="270" height="26" as="geometry" />
        </mxCell>
        <mxCell id="9oA4WcotnSKjbuGWI8nr-74" value="+ getPlayer1(): Player" style="text;strokeColor=none;fillColor=none;align=left;verticalAlign=top;spacingLeft=4;spacingRight=4;overflow=hidden;rotatable=0;points=[[0,0.5],[1,0.5]];portConstraint=eastwest;whiteSpace=wrap;html=1;" vertex="1" parent="9oA4WcotnSKjbuGWI8nr-12">
          <mxGeometry y="268" width="270" height="26" as="geometry" />
        </mxCell>
        <mxCell id="9oA4WcotnSKjbuGWI8nr-76" value="+ setPlayer2(Player player): void" style="text;strokeColor=none;fillColor=none;align=left;verticalAlign=top;spacingLeft=4;spacingRight=4;overflow=hidden;rotatable=0;points=[[0,0.5],[1,0.5]];portConstraint=eastwest;whiteSpace=wrap;html=1;" vertex="1" parent="9oA4WcotnSKjbuGWI8nr-12">
          <mxGeometry y="294" width="270" height="26" as="geometry" />
        </mxCell>
        <mxCell id="9oA4WcotnSKjbuGWI8nr-78" value="+ getPlayer2(): Player" style="text;strokeColor=none;fillColor=none;align=left;verticalAlign=top;spacingLeft=4;spacingRight=4;overflow=hidden;rotatable=0;points=[[0,0.5],[1,0.5]];portConstraint=eastwest;whiteSpace=wrap;html=1;" vertex="1" parent="9oA4WcotnSKjbuGWI8nr-12">
          <mxGeometry y="320" width="270" height="26" as="geometry" />
        </mxCell>
        <mxCell id="9oA4WcotnSKjbuGWI8nr-79" value="+ getGame(): Game" style="text;strokeColor=none;fillColor=none;align=left;verticalAlign=top;spacingLeft=4;spacingRight=4;overflow=hidden;rotatable=0;points=[[0,0.5],[1,0.5]];portConstraint=eastwest;whiteSpace=wrap;html=1;" vertex="1" parent="9oA4WcotnSKjbuGWI8nr-12">
          <mxGeometry y="346" width="270" height="26" as="geometry" />
        </mxCell>
        <mxCell id="9oA4WcotnSKjbuGWI8nr-33" value="Dimension&lt;br&gt;&amp;lt;&amp;lt;Abstract&amp;gt;&amp;gt;" style="swimlane;fontStyle=0;childLayout=stackLayout;horizontal=1;startSize=50;fillColor=none;horizontalStack=0;resizeParent=1;resizeParentMax=0;resizeLast=0;collapsible=1;marginBottom=0;whiteSpace=wrap;html=1;" vertex="1" parent="1">
          <mxGeometry x="160" width="200" height="274" as="geometry" />
        </mxCell>
        <mxCell id="9oA4WcotnSKjbuGWI8nr-34" value="+ width: int" style="text;strokeColor=none;fillColor=none;align=left;verticalAlign=top;spacingLeft=4;spacingRight=4;overflow=hidden;rotatable=0;points=[[0,0.5],[1,0.5]];portConstraint=eastwest;whiteSpace=wrap;html=1;" vertex="1" parent="9oA4WcotnSKjbuGWI8nr-33">
          <mxGeometry y="50" width="200" height="26" as="geometry" />
        </mxCell>
        <mxCell id="9oA4WcotnSKjbuGWI8nr-35" value="+ height: int" style="text;strokeColor=none;fillColor=none;align=left;verticalAlign=top;spacingLeft=4;spacingRight=4;overflow=hidden;rotatable=0;points=[[0,0.5],[1,0.5]];portConstraint=eastwest;whiteSpace=wrap;html=1;" vertex="1" parent="9oA4WcotnSKjbuGWI8nr-33">
          <mxGeometry y="76" width="200" height="26" as="geometry" />
        </mxCell>
        <mxCell id="9oA4WcotnSKjbuGWI8nr-37" value="" style="line;strokeWidth=1;fillColor=none;align=left;verticalAlign=middle;spacingTop=-1;spacingLeft=3;spacingRight=3;rotatable=0;labelPosition=right;points=[];portConstraint=eastwest;strokeColor=inherit;" vertex="1" parent="9oA4WcotnSKjbuGWI8nr-33">
          <mxGeometry y="102" width="200" height="8" as="geometry" />
        </mxCell>
        <mxCell id="9oA4WcotnSKjbuGWI8nr-38" value="+ Dimension()" style="text;strokeColor=none;fillColor=none;align=left;verticalAlign=top;spacingLeft=4;spacingRight=4;overflow=hidden;rotatable=0;points=[[0,0.5],[1,0.5]];portConstraint=eastwest;whiteSpace=wrap;html=1;" vertex="1" parent="9oA4WcotnSKjbuGWI8nr-33">
          <mxGeometry y="110" width="200" height="26" as="geometry" />
        </mxCell>
        <mxCell id="9oA4WcotnSKjbuGWI8nr-39" value="+ Dimension(int height, int width)" style="text;strokeColor=none;fillColor=none;align=left;verticalAlign=top;spacingLeft=4;spacingRight=4;overflow=hidden;rotatable=0;points=[[0,0.5],[1,0.5]];portConstraint=eastwest;whiteSpace=wrap;html=1;" vertex="1" parent="9oA4WcotnSKjbuGWI8nr-33">
          <mxGeometry y="136" width="200" height="26" as="geometry" />
        </mxCell>
        <mxCell id="9oA4WcotnSKjbuGWI8nr-40" value="" style="line;strokeWidth=1;fillColor=none;align=left;verticalAlign=middle;spacingTop=-1;spacingLeft=3;spacingRight=3;rotatable=0;labelPosition=right;points=[];portConstraint=eastwest;strokeColor=inherit;" vertex="1" parent="9oA4WcotnSKjbuGWI8nr-33">
          <mxGeometry y="162" width="200" height="8" as="geometry" />
        </mxCell>
        <mxCell id="9oA4WcotnSKjbuGWI8nr-41" value="+ getWidth(): int" style="text;strokeColor=none;fillColor=none;align=left;verticalAlign=top;spacingLeft=4;spacingRight=4;overflow=hidden;rotatable=0;points=[[0,0.5],[1,0.5]];portConstraint=eastwest;whiteSpace=wrap;html=1;" vertex="1" parent="9oA4WcotnSKjbuGWI8nr-33">
          <mxGeometry y="170" width="200" height="26" as="geometry" />
        </mxCell>
        <mxCell id="9oA4WcotnSKjbuGWI8nr-42" value="+ setWidth(int width): void" style="text;strokeColor=none;fillColor=none;align=left;verticalAlign=top;spacingLeft=4;spacingRight=4;overflow=hidden;rotatable=0;points=[[0,0.5],[1,0.5]];portConstraint=eastwest;whiteSpace=wrap;html=1;" vertex="1" parent="9oA4WcotnSKjbuGWI8nr-33">
          <mxGeometry y="196" width="200" height="26" as="geometry" />
        </mxCell>
        <mxCell id="9oA4WcotnSKjbuGWI8nr-43" value="+ getHeight(): int" style="text;strokeColor=none;fillColor=none;align=left;verticalAlign=top;spacingLeft=4;spacingRight=4;overflow=hidden;rotatable=0;points=[[0,0.5],[1,0.5]];portConstraint=eastwest;whiteSpace=wrap;html=1;" vertex="1" parent="9oA4WcotnSKjbuGWI8nr-33">
          <mxGeometry y="222" width="200" height="26" as="geometry" />
        </mxCell>
        <mxCell id="9oA4WcotnSKjbuGWI8nr-44" value="+ setHeight(int height): void" style="text;strokeColor=none;fillColor=none;align=left;verticalAlign=top;spacingLeft=4;spacingRight=4;overflow=hidden;rotatable=0;points=[[0,0.5],[1,0.5]];portConstraint=eastwest;whiteSpace=wrap;html=1;" vertex="1" parent="9oA4WcotnSKjbuGWI8nr-33">
          <mxGeometry y="248" width="200" height="26" as="geometry" />
        </mxCell>
        <mxCell id="9oA4WcotnSKjbuGWI8nr-86" value="Bomb" style="swimlane;fontStyle=0;childLayout=stackLayout;horizontal=1;startSize=26;fillColor=none;horizontalStack=0;resizeParent=1;resizeParentMax=0;resizeLast=0;collapsible=1;marginBottom=0;whiteSpace=wrap;html=1;" vertex="1" parent="1">
          <mxGeometry x="567" y="585" width="190" height="250" as="geometry" />
        </mxCell>
        <mxCell id="9oA4WcotnSKjbuGWI8nr-87" value="+ coord: Coord" style="text;strokeColor=none;fillColor=none;align=left;verticalAlign=top;spacingLeft=4;spacingRight=4;overflow=hidden;rotatable=0;points=[[0,0.5],[1,0.5]];portConstraint=eastwest;whiteSpace=wrap;html=1;" vertex="1" parent="9oA4WcotnSKjbuGWI8nr-86">
          <mxGeometry y="26" width="190" height="26" as="geometry" />
        </mxCell>
        <mxCell id="9oA4WcotnSKjbuGWI8nr-88" value="+ hit: boolean" style="text;strokeColor=none;fillColor=none;align=left;verticalAlign=top;spacingLeft=4;spacingRight=4;overflow=hidden;rotatable=0;points=[[0,0.5],[1,0.5]];portConstraint=eastwest;whiteSpace=wrap;html=1;" vertex="1" parent="9oA4WcotnSKjbuGWI8nr-86">
          <mxGeometry y="52" width="190" height="26" as="geometry" />
        </mxCell>
        <mxCell id="9oA4WcotnSKjbuGWI8nr-92" value="" style="line;strokeWidth=1;fillColor=none;align=left;verticalAlign=middle;spacingTop=-1;spacingLeft=3;spacingRight=3;rotatable=0;labelPosition=right;points=[];portConstraint=eastwest;strokeColor=inherit;" vertex="1" parent="9oA4WcotnSKjbuGWI8nr-86">
          <mxGeometry y="78" width="190" height="8" as="geometry" />
        </mxCell>
        <mxCell id="9oA4WcotnSKjbuGWI8nr-94" value="+ Bomb()" style="text;strokeColor=none;fillColor=none;align=left;verticalAlign=top;spacingLeft=4;spacingRight=4;overflow=hidden;rotatable=0;points=[[0,0.5],[1,0.5]];portConstraint=eastwest;whiteSpace=wrap;html=1;" vertex="1" parent="9oA4WcotnSKjbuGWI8nr-86">
          <mxGeometry y="86" width="190" height="26" as="geometry" />
        </mxCell>
        <mxCell id="9oA4WcotnSKjbuGWI8nr-95" value="+ Bomb(Coord)" style="text;strokeColor=none;fillColor=none;align=left;verticalAlign=top;spacingLeft=4;spacingRight=4;overflow=hidden;rotatable=0;points=[[0,0.5],[1,0.5]];portConstraint=eastwest;whiteSpace=wrap;html=1;" vertex="1" parent="9oA4WcotnSKjbuGWI8nr-86">
          <mxGeometry y="112" width="190" height="26" as="geometry" />
        </mxCell>
        <mxCell id="9oA4WcotnSKjbuGWI8nr-96" value="" style="line;strokeWidth=1;fillColor=none;align=left;verticalAlign=middle;spacingTop=-1;spacingLeft=3;spacingRight=3;rotatable=0;labelPosition=right;points=[];portConstraint=eastwest;strokeColor=inherit;" vertex="1" parent="9oA4WcotnSKjbuGWI8nr-86">
          <mxGeometry y="138" width="190" height="8" as="geometry" />
        </mxCell>
        <mxCell id="9oA4WcotnSKjbuGWI8nr-98" value="+ setCoord(Coord coord): void" style="text;strokeColor=none;fillColor=none;align=left;verticalAlign=top;spacingLeft=4;spacingRight=4;overflow=hidden;rotatable=0;points=[[0,0.5],[1,0.5]];portConstraint=eastwest;whiteSpace=wrap;html=1;" vertex="1" parent="9oA4WcotnSKjbuGWI8nr-86">
          <mxGeometry y="146" width="190" height="26" as="geometry" />
        </mxCell>
        <mxCell id="9oA4WcotnSKjbuGWI8nr-99" value="+ getCoord(): Coord" style="text;strokeColor=none;fillColor=none;align=left;verticalAlign=top;spacingLeft=4;spacingRight=4;overflow=hidden;rotatable=0;points=[[0,0.5],[1,0.5]];portConstraint=eastwest;whiteSpace=wrap;html=1;" vertex="1" parent="9oA4WcotnSKjbuGWI8nr-86">
          <mxGeometry y="172" width="190" height="26" as="geometry" />
        </mxCell>
        <mxCell id="9oA4WcotnSKjbuGWI8nr-100" value="+ isHit(): boolean" style="text;strokeColor=none;fillColor=none;align=left;verticalAlign=top;spacingLeft=4;spacingRight=4;overflow=hidden;rotatable=0;points=[[0,0.5],[1,0.5]];portConstraint=eastwest;whiteSpace=wrap;html=1;" vertex="1" parent="9oA4WcotnSKjbuGWI8nr-86">
          <mxGeometry y="198" width="190" height="26" as="geometry" />
        </mxCell>
        <mxCell id="9oA4WcotnSKjbuGWI8nr-101" value="+ setHit(boolean hit): void" style="text;strokeColor=none;fillColor=none;align=left;verticalAlign=top;spacingLeft=4;spacingRight=4;overflow=hidden;rotatable=0;points=[[0,0.5],[1,0.5]];portConstraint=eastwest;whiteSpace=wrap;html=1;" vertex="1" parent="9oA4WcotnSKjbuGWI8nr-86">
          <mxGeometry y="224" width="190" height="26" as="geometry" />
        </mxCell>
      </root>
    </mxGraphModel>
  </diagram>
</mxfile>
